# xmcd
#
# Track frame offsets:
#	150
#	12878
#	28339
#	45555
#	60569
#	80484
#	95149
#	110690
#	124979
#	144146
#	160221
#	173884
#	193630
#	208274
#	222689
#
# Disc length: 3138 seconds
#
# Revision: 1
# Processed by: cddbd v1.5.2PL0 Copyright (c) Steve Scherf et al.
# Submitted via: audiograbber 1.83.01
#
DISCID=df0c400f
DTITLE=Country - CB60166
DYEAR=1998
DGENRE=Karaoke
TTITLE0=C.O.U.N.T.R.Y.
TTITLE1=Home
TTITLE2=In My Own Backyard
TTITLE3=I'm In Love With A Capital "U"
TTITLE4=That Road Not Taken
TTITLE5=Doctor Time
TTITLE6=She Can't Say I Didn't Cry
TTITLE7=Save This One For Me
TTITLE8=Looking For The Light
TTITLE9=This Is Me Missing You
TTITLE10=When I Come Back (I Wanna Be My Dog)
TTITLE11=In The Blood
TTITLE12=Still Burnin' For You
TTITLE13=Working Woman
TTITLE14=She Wrote The Book
EXTD=
EXTT0=
EXTT1=
EXTT2=
EXTT3=
EXTT4=
EXTT5=
EXTT6=
EXTT7=
EXTT8=
EXTT9=
EXTT10=
EXTT11=
EXTT12=
EXTT13=
EXTT14=
PLAYORDER=
